<?xml version="1.0" encoding="UTF-8" standalone="no"?>
<!DOCTYPE svg PUBLIC "-//W3C//DTD SVG 1.1//EN" "http://www.w3.org/Graphics/SVG/1.1/DTD/svg11.dtd">
<svg width="100%" height="100%" viewBox="0 0 672 613" version="1.1" xmlns="http://www.w3.org/2000/svg" xmlns:xlink="http://www.w3.org/1999/xlink" xml:space="preserve" xmlns:serif="http://www.serif.com/" style="fill-rule:evenodd;clip-rule:evenodd;stroke-linejoin:round;stroke-miterlimit:2;">
    <circle cx="306.481" cy="306.481" r="306.481" style="fill:url(#_Linear1);"/>
    <path d="M413.855,115.609c-0.419,0.737 -1.067,1.317 -1.847,1.65c-0.78,0.348 -1.655,0.428 -2.486,0.228l-6.821,-1.51c-2.1,-0.468 -4.28,-0.443 -6.368,0.071c-2.09,0.519 -4.026,1.528 -5.648,2.943l-5.381,4.458c-0.614,0.554 -1.39,0.897 -2.213,0.979c-0.855,0.049 -1.706,-0.161 -2.44,-0.603c-1.551,-0.841 -2.342,-2.641 -1.911,-4.353l1.51,-6.821c0.482,-2.098 0.457,-4.281 -0.072,-6.368c-0.547,-2.085 -1.544,-4.024 -2.922,-5.681l-4.571,-5.268c-0.532,-0.639 -0.866,-1.42 -0.959,-2.246c-0.077,-0.862 0.11,-1.727 0.536,-2.48c0.841,-1.551 2.641,-2.342 4.353,-1.911l6.854,1.53c4.291,0.991 8.808,-0.142 12.123,-3.041l5.261,-4.485c1.245,-1.178 3.131,-1.397 4.613,-0.535c0.715,0.428 1.299,1.044 1.69,1.78c0.356,0.778 0.467,1.649 0.314,2.492l-1.537,6.942c-0.991,4.291 0.142,8.807 3.041,12.122l4.458,5.381c0.553,0.637 0.883,1.438 0.939,2.279c0.103,0.85 -0.078,1.711 -0.516,2.447m-20.583,-41.063c-0.396,0.649 -0.973,1.167 -1.661,1.491c-0.714,0.299 -1.501,0.379 -2.26,0.227l-5.026,-1.112c-1.417,-0.298 -2.876,-0.277 -4.281,0.056c-1.398,0.366 -2.697,1.039 -3.801,1.971l-3.899,3.267c-0.584,0.515 -1.323,0.819 -2.1,0.866c-0.775,0.054 -1.549,-0.126 -2.221,-0.517c-0.675,-0.419 -1.204,-1.036 -1.517,-1.767c-0.285,-0.711 -0.352,-1.491 -0.194,-2.24l1.126,-4.973c0.297,-1.403 0.27,-2.856 -0.077,-4.248c-0.316,-1.403 -0.983,-2.704 -1.937,-3.781l-3.32,-3.886c-0.524,-0.589 -0.84,-1.334 -0.9,-2.12c-0.021,-0.738 0.17,-1.468 0.55,-2.102c0.819,-1.368 2.402,-2.097 3.974,-1.83l4.973,1.126c2.879,0.595 5.878,-0.157 8.135,-2.04l3.813,-3.274c0.563,-0.495 1.258,-0.817 2,-0.925c0.769,-0.082 1.545,0.068 2.228,0.43c0.681,0.384 1.231,0.965 1.576,1.667c0.331,0.707 0.44,1.497 0.315,2.267l-1.153,5.092c-0.595,2.879 0.157,5.878 2.041,8.135l3.3,3.92c0.493,0.585 0.786,1.315 0.832,2.08c0.07,0.776 -0.111,1.554 -0.516,2.22m29.925,-6.294c-0.394,0.588 -0.94,1.058 -1.581,1.357c-0.63,0.267 -1.33,0.324 -1.994,0.161l-2.48,-0.536c-0.979,-0.206 -2,0.05 -2.765,0.693l-1.986,1.657c-0.507,0.39 -1.108,0.638 -1.741,0.72c-0.726,0.099 -1.463,-0.056 -2.088,-0.438c-0.554,-0.379 -1.01,-0.885 -1.331,-1.474c-0.278,-0.664 -0.343,-1.398 -0.188,-2.101l0.537,-2.48c0.125,-0.48 0.115,-0.986 -0.028,-1.462c-0.109,-0.483 -0.338,-0.931 -0.666,-1.302l-1.663,-1.9c-0.42,-0.543 -0.689,-1.187 -0.779,-1.867c-0.047,-0.705 0.122,-1.408 0.483,-2.015c0.384,-0.597 0.934,-1.068 1.581,-1.357c0.635,-0.248 1.328,-0.304 1.995,-0.161l2.426,0.549c0.493,0.106 1.004,0.103 1.496,-0.008c0.486,-0.134 0.937,-0.373 1.322,-0.699l1.933,-1.643c0.508,-0.396 1.097,-0.662 1.728,-0.772c0.688,-0.067 1.381,0.052 2.008,0.344c0.629,0.372 1.133,0.925 1.444,1.587c0.257,0.634 0.342,1.324 0.247,2.001l-0.576,2.546c-0.106,0.494 -0.103,1.004 0.008,1.496c0.137,0.472 0.363,0.914 0.665,1.302l1.677,1.953c0.407,0.529 0.671,1.154 0.766,1.814c0.068,0.709 -0.089,1.421 -0.45,2.035" style="fill:url(#_Linear2);fill-rule:nonzero;"/>
    <clipPath id="_clip3">
        <rect id="DeviconVuejs.svg" x="107.004" y="135.713" width="239.541" height="224.335"/>
    </clipPath>
    <g clip-path="url(#_clip3)">
        <path d="M107.004,151.37l93.298,0.277l26.512,42.887l27.009,-42.887l92.723,-0.275l-119.46,193.034l-120.082,-193.036Zm237.633,1.117l-45.588,0.035l-72.005,115.766l-71.961,-115.764l-46.316,-0.035l118.294,189.09l117.576,-189.092Zm-47.064,-0.014l-42.566,0.294l-28.17,43.197l-27.729,-43.198l-42.657,-0.295l70.61,113.002l70.512,-113Zm-141.917,-0.298l43.046,0.016m-43.046,-0.018l43.046,0.018" style="fill:none;fill-rule:nonzero;"/>
        <path d="M155.656,152.175l43.046,0.016l28.138,43.742l28.04,-43.739l43.009,-0.01l-70.833,115.068l-71.4,-115.077Z" style="fill:#35495e;fill-rule:nonzero;"/>
        <path d="M108.707,152.483l46.911,-0.301l71.395,115.075l70.838,-115.068l46.992,0.046l-117.836,189.387l-118.3,-189.139Z" style="fill:#41b883;fill-rule:nonzero;"/>
    </g>
    <g>
        <path d="M527.976,380.391l-110.622,-69.085l-0,-45.147c-0,-2.67 1.421,-5.213 3.905,-6.986c10.329,-7.372 37.578,-26.821 37.578,-26.821c0,0 3.073,-2.137 6.322,-4.397c4.31,-2.997 10.702,-2.997 15.012,0c3.249,2.26 6.322,4.397 6.322,4.397c-0,0 27.273,19.466 37.591,26.831c2.475,1.766 3.892,4.3 3.892,6.962c-0,21.038 -0,114.246 -0,114.246Zm-55.311,-118.431c-7.605,0 -13.828,5.33 -13.828,11.843l0,17.765l27.656,-0l-0,-17.765c-0,-6.513 -6.223,-11.843 -13.828,-11.843" style="fill:url(#_Linear4);fill-rule:nonzero;"/>
        <path d="M417.354,380.391l-0,-69.085l110.622,69.085l-110.622,-0Z" style="fill:url(#_Linear5);"/>
    </g>
    <g id="bridge">
        <clipPath id="_clip6">
            <circle cx="306.481" cy="306.481" r="306.481"/>
        </clipPath>
        <g clip-path="url(#_clip6)">
            <clipPath id="_clip7">
                <rect id="Fa6SolidBridgeWater.svg" x="6.306" y="380.721" width="166.436" height="147.943"/>
            </clipPath>
            <g clip-path="url(#_clip7)">
                <path d="M6.306,389.703c0,-5.114 -5.114,-8.982 0,-8.982l166.436,0.402c5.115,0 0,3.466 0,8.58c0,0 4.537,17.978 0,17.978c-10.778,0 -27.739,9.241 -27.739,20.048l-0,36.09c-3.728,0 -7.455,1.127 -10.634,3.381c-5.201,3.583 -11.586,5.865 -17.105,5.865l-0,-37.13c-0,-15.314 -12.425,-27.739 -27.74,-27.739c-15.314,0 -27.739,12.425 -27.739,27.739l0,37.13c-5.49,0 -11.905,-2.282 -17.077,-5.865c-3.207,-2.254 -6.935,-3.381 -10.662,-3.381l-0,-36.09c-0,-10.807 -16.933,-18.556 -27.74,-18.556c-4.536,0 0,-19.47 0,-19.47Zm88.824,109.988c6.501,4.479 14.447,7.542 22.394,7.542c7.772,-0 16.007,-3.121 22.364,-7.542c3.439,-2.456 8.12,-2.254 11.327,0.491c4.161,3.439 16.297,6.068 21.527,7.282c4.97,1.155 2.912,6.125 1.757,11.095c-1.156,4.97 3.213,6.337 -1.757,5.181c-7.079,-1.647 -24.069,-3.042 -27.913,-5.498c-8.379,4.507 -17.77,7.483 -27.305,7.483c-9.218,0 -17.511,-2.86 -23.232,-5.461c-1.676,-0.78 -3.207,-1.531 -4.508,-2.225c-1.3,0.694 -2.802,1.474 -4.507,2.225c-5.722,2.601 -14.014,5.461 -23.232,5.461c-9.535,0 -18.926,-2.976 -27.306,-7.455c-3.872,2.428 -21.353,4.155 -28.433,5.802c-4.969,1.156 -5.481,-0.514 -6.637,-5.484c-1.156,-4.97 1.668,-10.107 6.637,-11.263c5.231,-1.214 17.887,-3.675 22.047,-7.114c3.208,-2.716 7.889,-2.918 11.327,-0.491c6.386,4.392 14.592,7.513 22.365,7.513c7.946,-0 15.892,-3.063 22.394,-7.542c3.207,-2.283 7.484,-2.283 10.691,-0" style="fill:url(#_Linear8);fill-rule:nonzero;"/>
                <clipPath id="_clip9">
                    <path d="M6.306,389.703c0,-5.114 -5.114,-8.982 0,-8.982l166.436,0.402c5.115,0 0,3.466 0,8.58c0,0 4.537,17.978 0,17.978c-10.778,0 -27.739,9.241 -27.739,20.048l-0,36.09c-3.728,0 -7.455,1.127 -10.634,3.381c-5.201,3.583 -11.586,5.865 -17.105,5.865l-0,-37.13c-0,-15.314 -12.425,-27.739 -27.74,-27.739c-15.314,0 -27.739,12.425 -27.739,27.739l0,37.13c-5.49,0 -11.905,-2.282 -17.077,-5.865c-3.207,-2.254 -6.935,-3.381 -10.662,-3.381l-0,-36.09c-0,-10.807 -16.933,-18.556 -27.74,-18.556c-4.536,0 0,-19.47 0,-19.47Zm88.824,109.988c6.501,4.479 14.447,7.542 22.394,7.542c7.772,-0 16.007,-3.121 22.364,-7.542c3.439,-2.456 8.12,-2.254 11.327,0.491c4.161,3.439 16.297,6.068 21.527,7.282c4.97,1.155 2.912,6.125 1.757,11.095c-1.156,4.97 3.213,6.337 -1.757,5.181c-7.079,-1.647 -24.069,-3.042 -27.913,-5.498c-8.379,4.507 -17.77,7.483 -27.305,7.483c-9.218,0 -17.511,-2.86 -23.232,-5.461c-1.676,-0.78 -3.207,-1.531 -4.508,-2.225c-1.3,0.694 -2.802,1.474 -4.507,2.225c-5.722,2.601 -14.014,5.461 -23.232,5.461c-9.535,0 -18.926,-2.976 -27.306,-7.455c-3.872,2.428 -21.353,4.155 -28.433,5.802c-4.969,1.156 -5.481,-0.514 -6.637,-5.484c-1.156,-4.97 1.668,-10.107 6.637,-11.263c5.231,-1.214 17.887,-3.675 22.047,-7.114c3.208,-2.716 7.889,-2.918 11.327,-0.491c6.386,4.392 14.592,7.513 22.365,7.513c7.946,-0 15.892,-3.063 22.394,-7.542c3.207,-2.283 7.484,-2.283 10.691,-0" clip-rule="nonzero"/>
                </clipPath>
                <g clip-path="url(#_clip9)">
                    <path d="M95.13,499.691c6.501,4.479 14.447,7.542 22.394,7.542c7.772,-0 16.007,-3.121 22.364,-7.542c3.439,-2.456 8.12,-2.254 11.327,0.491c4.161,3.439 16.297,6.068 21.527,7.282c4.97,1.155 2.912,6.125 1.757,11.095c-1.156,4.97 3.213,6.337 -1.757,5.181c-7.079,-1.647 -24.069,-3.042 -27.913,-5.498c-8.379,4.507 -17.77,7.483 -27.305,7.483c-9.218,0 -17.511,-2.86 -23.232,-5.461c-1.676,-0.78 -3.207,-1.531 -4.508,-2.225c-1.3,0.694 -2.802,1.474 -4.507,2.225c-5.722,2.601 -14.014,5.461 -23.232,5.461c-9.535,0 -18.926,-2.976 -27.306,-7.455c-3.872,2.428 -21.353,4.155 -28.433,5.802c-4.969,1.156 -5.481,-0.514 -6.637,-5.484c-1.156,-4.97 1.668,-10.107 6.637,-11.263c5.231,-1.214 17.887,-3.675 22.047,-7.114c3.208,-2.716 7.889,-2.918 11.327,-0.491c6.386,4.392 14.592,7.513 22.365,7.513c7.946,-0 15.892,-3.063 22.394,-7.542c3.207,-2.283 7.484,-2.283 10.691,-0Z" style="fill:#f00;"/>
                </g>
            </g>
            <clipPath id="_clip10">
                <rect id="Fa6SolidBridgeWater.svg1" serif:id="Fa6SolidBridgeWater.svg" x="172.742" y="380.721" width="166.436" height="147.943"/>
            </clipPath>
            <g clip-path="url(#_clip10)">
                <path d="M339.178,389.703c-0,-5.114 5.114,-8.982 -0,-8.982l-166.436,0.402c-5.114,0 0,3.466 0,8.58c0,0 -4.536,17.978 0,17.978c10.778,0 27.739,9.241 27.739,20.048l0,36.09c3.728,0 7.455,1.127 10.634,3.381c5.201,3.583 11.587,5.865 17.106,5.865l-0,-37.13c-0,-15.314 12.425,-27.739 27.739,-27.739c15.314,0 27.739,12.425 27.739,27.739l0,37.13c5.49,0 11.905,-2.282 17.077,-5.865c3.208,-2.254 6.935,-3.381 10.662,-3.381l0,-36.09c0,-10.807 16.933,-18.556 27.74,-18.556c4.536,0 -0,-19.47 -0,-19.47Zm-88.824,109.988c-6.501,4.479 -14.447,7.542 -22.393,7.542c-7.773,-0 -16.008,-3.121 -22.365,-7.542c-3.439,-2.456 -8.12,-2.254 -11.327,0.491c-4.161,3.439 -16.297,6.068 -21.527,7.282c-4.97,1.155 -2.912,6.125 -1.756,11.095c1.155,4.97 -3.214,6.337 1.756,5.181c7.079,-1.647 24.07,-3.042 27.913,-5.498c8.379,4.507 17.77,7.483 27.306,7.483c9.217,0 17.51,-2.86 23.231,-5.461c1.676,-0.78 3.208,-1.531 4.508,-2.225c1.3,0.694 2.803,1.474 4.507,2.225c5.722,2.601 14.015,5.461 23.232,5.461c9.535,0 18.926,-2.976 27.306,-7.455c3.872,2.428 21.353,4.155 28.433,5.802c4.97,1.156 5.481,-0.514 6.637,-5.484c1.156,-4.97 -1.667,-10.107 -6.637,-11.263c-5.23,-1.214 -17.886,-3.675 -22.047,-7.114c-3.208,-2.716 -7.889,-2.918 -11.327,-0.491c-6.386,4.392 -14.592,7.513 -22.365,7.513c-7.946,-0 -15.892,-3.063 -22.394,-7.542c-3.207,-2.283 -7.483,-2.283 -10.691,-0" style="fill:url(#_Linear11);fill-rule:nonzero;"/>
                <clipPath id="_clip12">
                    <path d="M339.178,389.703c-0,-5.114 5.114,-8.982 -0,-8.982l-166.436,0.402c-5.114,0 0,3.466 0,8.58c0,0 -4.536,17.978 0,17.978c10.778,0 27.739,9.241 27.739,20.048l0,36.09c3.728,0 7.455,1.127 10.634,3.381c5.201,3.583 11.587,5.865 17.106,5.865l-0,-37.13c-0,-15.314 12.425,-27.739 27.739,-27.739c15.314,0 27.739,12.425 27.739,27.739l0,37.13c5.49,0 11.905,-2.282 17.077,-5.865c3.208,-2.254 6.935,-3.381 10.662,-3.381l0,-36.09c0,-10.807 16.933,-18.556 27.74,-18.556c4.536,0 -0,-19.47 -0,-19.47Zm-88.824,109.988c-6.501,4.479 -14.447,7.542 -22.393,7.542c-7.773,-0 -16.008,-3.121 -22.365,-7.542c-3.439,-2.456 -8.12,-2.254 -11.327,0.491c-4.161,3.439 -16.297,6.068 -21.527,7.282c-4.97,1.155 -2.912,6.125 -1.756,11.095c1.155,4.97 -3.214,6.337 1.756,5.181c7.079,-1.647 24.07,-3.042 27.913,-5.498c8.379,4.507 17.77,7.483 27.306,7.483c9.217,0 17.51,-2.86 23.231,-5.461c1.676,-0.78 3.208,-1.531 4.508,-2.225c1.3,0.694 2.803,1.474 4.507,2.225c5.722,2.601 14.015,5.461 23.232,5.461c9.535,0 18.926,-2.976 27.306,-7.455c3.872,2.428 21.353,4.155 28.433,5.802c4.97,1.156 5.481,-0.514 6.637,-5.484c1.156,-4.97 -1.667,-10.107 -6.637,-11.263c-5.23,-1.214 -17.886,-3.675 -22.047,-7.114c-3.208,-2.716 -7.889,-2.918 -11.327,-0.491c-6.386,4.392 -14.592,7.513 -22.365,7.513c-7.946,-0 -15.892,-3.063 -22.394,-7.542c-3.207,-2.283 -7.483,-2.283 -10.691,-0" clip-rule="nonzero"/>
                </clipPath>
                <g clip-path="url(#_clip12)">
                    <path d="M250.354,499.691c-6.501,4.479 -14.447,7.542 -22.393,7.542c-7.773,-0 -16.008,-3.121 -22.365,-7.542c-3.439,-2.456 -8.12,-2.254 -11.327,0.491c-4.161,3.439 -16.297,6.068 -21.527,7.282c-4.97,1.155 -2.912,6.125 -1.756,11.095c1.155,4.97 -3.214,6.337 1.756,5.181c7.079,-1.647 24.07,-3.042 27.913,-5.498c8.379,4.507 17.77,7.483 27.306,7.483c9.217,0 17.51,-2.86 23.231,-5.461c1.676,-0.78 3.208,-1.531 4.508,-2.225c1.3,0.694 2.803,1.474 4.507,2.225c5.722,2.601 14.015,5.461 23.232,5.461c9.535,0 18.926,-2.976 27.306,-7.455c3.872,2.428 21.353,4.155 28.433,5.802c4.97,1.156 5.481,-0.514 6.637,-5.484c1.156,-4.97 -1.667,-10.107 -6.637,-11.263c-5.23,-1.214 -17.886,-3.675 -22.047,-7.114c-3.208,-2.716 -7.889,-2.918 -11.327,-0.491c-6.386,4.392 -14.592,7.513 -22.365,7.513c-7.946,-0 -15.892,-3.063 -22.394,-7.542c-3.207,-2.283 -7.483,-2.283 -10.691,-0Z" style="fill:#f00;"/>
                </g>
            </g>
            <clipPath id="_clip13">
                <rect id="Fa6SolidBridgeWater.svg2" serif:id="Fa6SolidBridgeWater.svg" x="339.178" y="380.721" width="166.436" height="147.943"/>
            </clipPath>
            <g clip-path="url(#_clip13)">
                <path d="M339.178,389.703c-0,-5.114 -5.115,-8.982 -0,-8.982l166.435,0.402c5.115,0 0,3.466 0,8.58c0,0 4.537,17.978 0,17.978c-10.778,0 -27.739,9.241 -27.739,20.048l0,36.09c-3.727,0 -7.455,1.127 -10.633,3.381c-5.201,3.583 -11.587,5.865 -17.106,5.865l-0,-37.13c-0,-15.314 -12.425,-27.739 -27.74,-27.739c-15.314,0 -27.739,12.425 -27.739,27.739l0,37.13c-5.49,0 -11.905,-2.282 -17.077,-5.865c-3.207,-2.254 -6.935,-3.381 -10.662,-3.381l-0,-36.09c-0,-10.807 -16.933,-18.556 -27.739,-18.556c-4.537,0 -0,-19.47 -0,-19.47Zm88.823,109.988c6.502,4.479 14.448,7.542 22.394,7.542c7.773,-0 16.008,-3.121 22.365,-7.542c3.438,-2.456 8.119,-2.254 11.326,0.491c4.161,3.439 16.297,6.068 21.527,7.282c4.97,1.155 2.913,6.125 1.757,11.095c-1.156,4.97 3.213,6.337 -1.757,5.181c-7.079,-1.647 -24.069,-3.042 -27.912,-5.498c-8.38,4.507 -17.771,7.483 -27.306,7.483c-9.218,0 -17.511,-2.86 -23.232,-5.461c-1.676,-0.78 -3.207,-1.531 -4.507,-2.225c-1.301,0.694 -2.803,1.474 -4.508,2.225c-5.721,2.601 -14.014,5.461 -23.232,5.461c-9.535,0 -18.926,-2.976 -27.306,-7.455c-3.871,2.428 -21.353,4.155 -28.432,5.802c-4.97,1.156 -5.482,-0.514 -6.638,-5.484c-1.155,-4.97 1.668,-10.107 6.638,-11.263c5.23,-1.214 17.886,-3.675 22.047,-7.114c3.207,-2.716 7.888,-2.918 11.327,-0.491c6.385,4.392 14.592,7.513 22.364,7.513c7.946,-0 15.893,-3.063 22.394,-7.542c3.207,-2.283 7.484,-2.283 10.691,-0" style="fill:url(#_Linear14);fill-rule:nonzero;"/>
                <clipPath id="_clip15">
                    <path d="M339.178,389.703c-0,-5.114 -5.115,-8.982 -0,-8.982l166.435,0.402c5.115,0 0,3.466 0,8.58c0,0 4.537,17.978 0,17.978c-10.778,0 -27.739,9.241 -27.739,20.048l0,36.09c-3.727,0 -7.455,1.127 -10.633,3.381c-5.201,3.583 -11.587,5.865 -17.106,5.865l-0,-37.13c-0,-15.314 -12.425,-27.739 -27.74,-27.739c-15.314,0 -27.739,12.425 -27.739,27.739l0,37.13c-5.49,0 -11.905,-2.282 -17.077,-5.865c-3.207,-2.254 -6.935,-3.381 -10.662,-3.381l-0,-36.09c-0,-10.807 -16.933,-18.556 -27.739,-18.556c-4.537,0 -0,-19.47 -0,-19.47Zm88.823,109.988c6.502,4.479 14.448,7.542 22.394,7.542c7.773,-0 16.008,-3.121 22.365,-7.542c3.438,-2.456 8.119,-2.254 11.326,0.491c4.161,3.439 16.297,6.068 21.527,7.282c4.97,1.155 2.913,6.125 1.757,11.095c-1.156,4.97 3.213,6.337 -1.757,5.181c-7.079,-1.647 -24.069,-3.042 -27.912,-5.498c-8.38,4.507 -17.771,7.483 -27.306,7.483c-9.218,0 -17.511,-2.86 -23.232,-5.461c-1.676,-0.78 -3.207,-1.531 -4.507,-2.225c-1.301,0.694 -2.803,1.474 -4.508,2.225c-5.721,2.601 -14.014,5.461 -23.232,5.461c-9.535,0 -18.926,-2.976 -27.306,-7.455c-3.871,2.428 -21.353,4.155 -28.432,5.802c-4.97,1.156 -5.482,-0.514 -6.638,-5.484c-1.155,-4.97 1.668,-10.107 6.638,-11.263c5.23,-1.214 17.886,-3.675 22.047,-7.114c3.207,-2.716 7.888,-2.918 11.327,-0.491c6.385,4.392 14.592,7.513 22.364,7.513c7.946,-0 15.893,-3.063 22.394,-7.542c3.207,-2.283 7.484,-2.283 10.691,-0" clip-rule="nonzero"/>
                </clipPath>
                <g clip-path="url(#_clip15)">
                    <path d="M428.001,499.691c6.502,4.479 14.448,7.542 22.394,7.542c7.773,-0 16.008,-3.121 22.365,-7.542c3.438,-2.456 8.119,-2.254 11.326,0.491c4.161,3.439 16.297,6.068 21.527,7.282c4.97,1.155 2.913,6.125 1.757,11.095c-1.156,4.97 3.213,6.337 -1.757,5.181c-7.079,-1.647 -24.069,-3.042 -27.912,-5.498c-8.38,4.507 -17.771,7.483 -27.306,7.483c-9.218,0 -17.511,-2.86 -23.232,-5.461c-1.676,-0.78 -3.207,-1.531 -4.507,-2.225c-1.301,0.694 -2.803,1.474 -4.508,2.225c-5.721,2.601 -14.014,5.461 -23.232,5.461c-9.535,0 -18.926,-2.976 -27.306,-7.455c-3.871,2.428 -21.353,4.155 -28.432,5.802c-4.97,1.156 -5.482,-0.514 -6.638,-5.484c-1.155,-4.97 1.668,-10.107 6.638,-11.263c5.23,-1.214 17.886,-3.675 22.047,-7.114c3.207,-2.716 7.888,-2.918 11.327,-0.491c6.385,4.392 14.592,7.513 22.364,7.513c7.946,-0 15.893,-3.063 22.394,-7.542c3.207,-2.283 7.484,-2.283 10.691,-0Z" style="fill:#f00;"/>
                </g>
            </g>
            <clipPath id="_clip16">
                <rect id="Fa6SolidBridgeWater.svg3" serif:id="Fa6SolidBridgeWater.svg" x="505.111" y="380.721" width="166.436" height="147.943"/>
            </clipPath>
            <g clip-path="url(#_clip16)">
                <path d="M671.546,389.703c0,-5.114 5.115,-8.982 0,-8.982l-166.435,0.402c-5.115,0 -0,3.466 -0,8.58c-0,0 -4.537,17.978 -0,17.978c10.778,0 27.739,9.241 27.739,20.048l-0,36.09c3.727,0 7.455,1.127 10.633,3.381c5.201,3.583 11.587,5.865 17.106,5.865l0,-37.13c0,-15.314 12.425,-27.739 27.739,-27.739c15.315,0 27.74,12.425 27.74,27.739l-0,37.13c5.49,0 11.904,-2.282 17.077,-5.865c3.207,-2.254 6.935,-3.381 10.662,-3.381l-0,-36.09c-0,-10.807 16.933,-18.556 27.739,-18.556c4.537,0 0,-19.47 0,-19.47Zm-88.823,109.988c-6.502,4.479 -14.448,7.542 -22.394,7.542c-7.773,-0 -16.008,-3.121 -22.365,-7.542c-3.438,-2.456 -8.119,-2.254 -11.327,0.491c-4.16,3.439 -16.296,6.068 -21.526,7.282c-4.97,1.155 -2.913,6.125 -1.757,11.095c1.156,4.97 -3.213,6.337 1.757,5.181c7.079,-1.647 24.069,-3.042 27.912,-5.498c8.38,4.507 17.771,7.483 27.306,7.483c9.218,0 17.511,-2.86 23.232,-5.461c1.676,-0.78 3.207,-1.531 4.507,-2.225c1.301,0.694 2.803,1.474 4.508,2.225c5.721,2.601 14.014,5.461 23.232,5.461c9.535,0 18.926,-2.976 27.306,-7.455c3.871,2.428 21.353,4.155 28.432,5.802c4.97,1.156 5.482,-0.514 6.638,-5.484c1.155,-4.97 -1.668,-10.107 -6.638,-11.263c-5.23,-1.214 -17.886,-3.675 -22.047,-7.114c-3.207,-2.716 -7.888,-2.918 -11.327,-0.491c-6.385,4.392 -14.592,7.513 -22.364,7.513c-7.946,-0 -15.893,-3.063 -22.394,-7.542c-3.207,-2.283 -7.484,-2.283 -10.691,-0" style="fill:url(#_Linear17);fill-rule:nonzero;"/>
                <clipPath id="_clip18">
                    <path d="M671.546,389.703c0,-5.114 5.115,-8.982 0,-8.982l-166.435,0.402c-5.115,0 -0,3.466 -0,8.58c-0,0 -4.537,17.978 -0,17.978c10.778,0 27.739,9.241 27.739,20.048l-0,36.09c3.727,0 7.455,1.127 10.633,3.381c5.201,3.583 11.587,5.865 17.106,5.865l0,-37.13c0,-15.314 12.425,-27.739 27.739,-27.739c15.315,0 27.74,12.425 27.74,27.739l-0,37.13c5.49,0 11.904,-2.282 17.077,-5.865c3.207,-2.254 6.935,-3.381 10.662,-3.381l-0,-36.09c-0,-10.807 16.933,-18.556 27.739,-18.556c4.537,0 0,-19.47 0,-19.47Zm-88.823,109.988c-6.502,4.479 -14.448,7.542 -22.394,7.542c-7.773,-0 -16.008,-3.121 -22.365,-7.542c-3.438,-2.456 -8.119,-2.254 -11.327,0.491c-4.16,3.439 -16.296,6.068 -21.526,7.282c-4.97,1.155 -2.913,6.125 -1.757,11.095c1.156,4.97 -3.213,6.337 1.757,5.181c7.079,-1.647 24.069,-3.042 27.912,-5.498c8.38,4.507 17.771,7.483 27.306,7.483c9.218,0 17.511,-2.86 23.232,-5.461c1.676,-0.78 3.207,-1.531 4.507,-2.225c1.301,0.694 2.803,1.474 4.508,2.225c5.721,2.601 14.014,5.461 23.232,5.461c9.535,0 18.926,-2.976 27.306,-7.455c3.871,2.428 21.353,4.155 28.432,5.802c4.97,1.156 5.482,-0.514 6.638,-5.484c1.155,-4.97 -1.668,-10.107 -6.638,-11.263c-5.23,-1.214 -17.886,-3.675 -22.047,-7.114c-3.207,-2.716 -7.888,-2.918 -11.327,-0.491c-6.385,4.392 -14.592,7.513 -22.364,7.513c-7.946,-0 -15.893,-3.063 -22.394,-7.542c-3.207,-2.283 -7.484,-2.283 -10.691,-0" clip-rule="nonzero"/>
                </clipPath>
                <g clip-path="url(#_clip18)">
                    <path d="M582.723,499.691c-6.502,4.479 -14.448,7.542 -22.394,7.542c-7.773,-0 -16.008,-3.121 -22.365,-7.542c-3.438,-2.456 -8.119,-2.254 -11.327,0.491c-4.16,3.439 -16.296,6.068 -21.526,7.282c-4.97,1.155 -2.913,6.125 -1.757,11.095c1.156,4.97 -3.213,6.337 1.757,5.181c7.079,-1.647 24.069,-3.042 27.912,-5.498c8.38,4.507 17.771,7.483 27.306,7.483c9.218,0 17.511,-2.86 23.232,-5.461c1.676,-0.78 3.207,-1.531 4.507,-2.225c1.301,0.694 2.803,1.474 4.508,2.225c5.721,2.601 14.014,5.461 23.232,5.461c9.535,0 18.926,-2.976 27.306,-7.455c3.871,2.428 21.353,4.155 28.432,5.802c4.97,1.156 5.482,-0.514 6.638,-5.484c1.155,-4.97 -1.668,-10.107 -6.638,-11.263c-5.23,-1.214 -17.886,-3.675 -22.047,-7.114c-3.207,-2.716 -7.888,-2.918 -11.327,-0.491c-6.385,4.392 -14.592,7.513 -22.364,7.513c-7.946,-0 -15.893,-3.063 -22.394,-7.542c-3.207,-2.283 -7.484,-2.283 -10.691,-0Z" style="fill:#f00;"/>
                </g>
            </g>
        </g>
    </g>
    <defs>
        <linearGradient id="_Linear1" x1="0" y1="0" x2="1" y2="0" gradientUnits="userSpaceOnUse" gradientTransform="matrix(365.709,-376.161,376.161,365.709,140.045,482.611)"><stop offset="0" style="stop-color:#2234ae;stop-opacity:1"/><stop offset="1" style="stop-color:#191714;stop-opacity:1"/></linearGradient>
        <linearGradient id="_Linear2" x1="0" y1="0" x2="1" y2="0" gradientUnits="userSpaceOnUse" gradientTransform="matrix(78.7123,-24.5383,24.5383,78.7123,356.424,94.0985)"><stop offset="0" style="stop-color:#ff930f;stop-opacity:1"/><stop offset="1" style="stop-color:#fff95b;stop-opacity:1"/></linearGradient>
        <linearGradient id="_Linear4" x1="0" y1="0" x2="1" y2="0" gradientUnits="userSpaceOnUse" gradientTransform="matrix(85.1288,-1.2986e-06,72.678,1.52107e-06,453.165,315.943)"><stop offset="0" style="stop-color:#ff930f;stop-opacity:1"/><stop offset="1" style="stop-color:#fff95b;stop-opacity:1"/></linearGradient>
        <linearGradient id="_Linear5" x1="0" y1="0" x2="1" y2="-0.289745" gradientUnits="userSpaceOnUse" gradientTransform="matrix(-51.3674,47.7317,-66.8768,-36.6622,483.153,326.23)"><stop offset="0" style="stop-color:#fff95b;stop-opacity:1"/><stop offset="1" style="stop-color:#ff930f;stop-opacity:1"/></linearGradient>
        <linearGradient id="_Linear8" x1="0" y1="0" x2="1" y2="0" gradientUnits="userSpaceOnUse" gradientTransform="matrix(7.40425e-15,-120.921,120.921,7.40425e-15,89.5243,463.397)"><stop offset="0" style="stop-color:#ff930f;stop-opacity:1"/><stop offset="1" style="stop-color:#fff95b;stop-opacity:1"/></linearGradient>
        <linearGradient id="_Linear11" x1="0" y1="0" x2="1" y2="0" gradientUnits="userSpaceOnUse" gradientTransform="matrix(-7.40425e-15,-120.921,-120.921,7.40425e-15,255.96,463.397)"><stop offset="0" style="stop-color:#ff930f;stop-opacity:1"/><stop offset="1" style="stop-color:#fff95b;stop-opacity:1"/></linearGradient>
        <linearGradient id="_Linear14" x1="0" y1="0" x2="1" y2="0" gradientUnits="userSpaceOnUse" gradientTransform="matrix(7.40425e-15,-120.921,120.921,7.40425e-15,422.395,463.397)"><stop offset="0" style="stop-color:#ff930f;stop-opacity:1"/><stop offset="1" style="stop-color:#fff95b;stop-opacity:1"/></linearGradient>
        <linearGradient id="_Linear17" x1="0" y1="0" x2="1" y2="0" gradientUnits="userSpaceOnUse" gradientTransform="matrix(-7.40425e-15,-120.921,-120.921,7.40425e-15,588.328,463.397)"><stop offset="0" style="stop-color:#ff930f;stop-opacity:1"/><stop offset="1" style="stop-color:#fff95b;stop-opacity:1"/></linearGradient>
    </defs>
</svg>
