<svg xmlns="http://www.w3.org/2000/svg" viewBox="0 0 300 200">
    <path d="M168 200h111c3.54 0 6.93-1.24 10-3s6.23-3.96 8-7 3-6.49 3-10-1.23-6.96-3-10L222 41c-1.77-3.04-3.93-5.24-7-7s-7.46-3-11-3-6.93 1.24-10 3-5.23 3.96-7 7l-19 33-38-64c-1.77-3.04-3.93-6.24-7-8-3.07-1.75-6.46-2-10-2s-6.93.25-10 2c-3.07 1.75-6.23 4.96-8 8L2 170c-1.77 3.04-2 6.49-2 10s.23 6.96 2 10 4.93 5.24 8 7c3.07 1.76 6.46 3 10 3h70c27.74 0 47.93-12.44 62-36l34-59 18-31 55 94h-73l-18 32Zm-79-32H40l73-126 37 63-24.51 42.73C116.14 163.01 105.49 168 89 168Z"
          style="fill:#00dc82;stroke-width:0"/>
</svg>
